<svg width="67" height="80" viewBox="0 0 67 80" fill="none" xmlns="http://www.w3.org/2000/svg">
<circle cx="33.5" cy="32.5" r="32.5" fill="#D60000"/>
<path d="M11.1693 69.03V76H10.2593V69.03H11.1693ZM15.3902 70.42C16.0569 70.42 16.5969 70.6233 17.0102 71.03C17.4235 71.43 17.6302 72.01 17.6302 72.77V76H16.7302V72.9C16.7302 72.3533 16.5935 71.9367 16.3202 71.65C16.0469 71.3567 15.6735 71.21 15.2002 71.21C14.7202 71.21 14.3369 71.36 14.0502 71.66C13.7702 71.96 13.6302 72.3967 13.6302 72.97V76H12.7202V70.52H13.6302V71.3C13.8102 71.02 14.0535 70.8033 14.3602 70.65C14.6735 70.4967 15.0169 70.42 15.3902 70.42ZM21.3467 71.27H20.1967V76H19.2867V71.27H18.5767V70.52H19.2867V70.13C19.2867 69.5167 19.4433 69.07 19.7567 68.79C20.0767 68.5033 20.5867 68.36 21.2867 68.36V69.12C20.8867 69.12 20.6033 69.2 20.4367 69.36C20.2767 69.5133 20.1967 69.77 20.1967 70.13V70.52H21.3467V71.27ZM24.7977 76.09C24.2844 76.09 23.8177 75.9733 23.3977 75.74C22.9844 75.5067 22.6577 75.1767 22.4177 74.75C22.1844 74.3167 22.0677 73.8167 22.0677 73.25C22.0677 72.69 22.1877 72.1967 22.4277 71.77C22.6744 71.3367 23.0077 71.0067 23.4277 70.78C23.8477 70.5467 24.3177 70.43 24.8377 70.43C25.3577 70.43 25.8277 70.5467 26.2477 70.78C26.6677 71.0067 26.9977 71.3333 27.2377 71.76C27.4844 72.1867 27.6077 72.6833 27.6077 73.25C27.6077 73.8167 27.481 74.3167 27.2277 74.75C26.981 75.1767 26.6444 75.5067 26.2177 75.74C25.791 75.9733 25.3177 76.09 24.7977 76.09ZM24.7977 75.29C25.1244 75.29 25.431 75.2133 25.7177 75.06C26.0044 74.9067 26.2344 74.6767 26.4077 74.37C26.5877 74.0633 26.6777 73.69 26.6777 73.25C26.6777 72.81 26.591 72.4367 26.4177 72.13C26.2444 71.8233 26.0177 71.5967 25.7377 71.45C25.4577 71.2967 25.1544 71.22 24.8277 71.22C24.4944 71.22 24.1877 71.2967 23.9077 71.45C23.6344 71.5967 23.4144 71.8233 23.2477 72.13C23.081 72.4367 22.9977 72.81 22.9977 73.25C22.9977 73.6967 23.0777 74.0733 23.2377 74.38C23.4044 74.6867 23.6244 74.9167 23.8977 75.07C24.171 75.2167 24.471 75.29 24.7977 75.29ZM29.7142 71.41C29.8742 71.0967 30.1008 70.8533 30.3942 70.68C30.6942 70.5067 31.0575 70.42 31.4842 70.42V71.36H31.2442C30.2242 71.36 29.7142 71.9133 29.7142 73.02V76H28.8042V70.52H29.7142V71.41ZM39.1246 70.42C39.5513 70.42 39.9313 70.51 40.2646 70.69C40.598 70.8633 40.8613 71.1267 41.0546 71.48C41.248 71.8333 41.3446 72.2633 41.3446 72.77V76H40.4446V72.9C40.4446 72.3533 40.308 71.9367 40.0346 71.65C39.768 71.3567 39.4046 71.21 38.9446 71.21C38.4713 71.21 38.0946 71.3633 37.8146 71.67C37.5346 71.97 37.3946 72.4067 37.3946 72.98V76H36.4946V72.9C36.4946 72.3533 36.358 71.9367 36.0846 71.65C35.818 71.3567 35.4546 71.21 34.9946 71.21C34.5213 71.21 34.1446 71.3633 33.8646 71.67C33.5846 71.97 33.4446 72.4067 33.4446 72.98V76H32.5346V70.52H33.4446V71.31C33.6246 71.0233 33.8646 70.8033 34.1646 70.65C34.4713 70.4967 34.808 70.42 35.1746 70.42C35.6346 70.42 36.0413 70.5233 36.3946 70.73C36.748 70.9367 37.0113 71.24 37.1846 71.64C37.338 71.2533 37.5913 70.9533 37.9446 70.74C38.298 70.5267 38.6913 70.42 39.1246 70.42ZM42.4974 73.24C42.4974 72.68 42.6107 72.19 42.8374 71.77C43.064 71.3433 43.374 71.0133 43.7674 70.78C44.1674 70.5467 44.6107 70.43 45.0974 70.43C45.5774 70.43 45.994 70.5333 46.3474 70.74C46.7007 70.9467 46.964 71.2067 47.1374 71.52V70.52H48.0574V76H47.1374V74.98C46.9574 75.3 46.6874 75.5667 46.3274 75.78C45.974 75.9867 45.5607 76.09 45.0874 76.09C44.6007 76.09 44.1607 75.97 43.7674 75.73C43.374 75.49 43.064 75.1533 42.8374 74.72C42.6107 74.2867 42.4974 73.7933 42.4974 73.24ZM47.1374 73.25C47.1374 72.8367 47.054 72.4767 46.8874 72.17C46.7207 71.8633 46.494 71.63 46.2074 71.47C45.9274 71.3033 45.6174 71.22 45.2774 71.22C44.9374 71.22 44.6274 71.3 44.3474 71.46C44.0674 71.62 43.844 71.8533 43.6774 72.16C43.5107 72.4667 43.4274 72.8267 43.4274 73.24C43.4274 73.66 43.5107 74.0267 43.6774 74.34C43.844 74.6467 44.0674 74.8833 44.3474 75.05C44.6274 75.21 44.9374 75.29 45.2774 75.29C45.6174 75.29 45.9274 75.21 46.2074 75.05C46.494 74.8833 46.7207 74.6467 46.8874 74.34C47.054 74.0267 47.1374 73.6633 47.1374 73.25ZM51.5352 76.09C51.1152 76.09 50.7385 76.02 50.4052 75.88C50.0719 75.7333 49.8085 75.5333 49.6152 75.28C49.4219 75.02 49.3152 74.7233 49.2952 74.39H50.2352C50.2619 74.6633 50.3885 74.8867 50.6152 75.06C50.8485 75.2333 51.1519 75.32 51.5252 75.32C51.8719 75.32 52.1452 75.2433 52.3452 75.09C52.5452 74.9367 52.6452 74.7433 52.6452 74.51C52.6452 74.27 52.5385 74.0933 52.3252 73.98C52.1119 73.86 51.7819 73.7433 51.3352 73.63C50.9285 73.5233 50.5952 73.4167 50.3352 73.31C50.0819 73.1967 49.8619 73.0333 49.6752 72.82C49.4952 72.6 49.4052 72.3133 49.4052 71.96C49.4052 71.68 49.4885 71.4233 49.6552 71.19C49.8219 70.9567 50.0585 70.7733 50.3652 70.64C50.6719 70.5 51.0219 70.43 51.4152 70.43C52.0219 70.43 52.5119 70.5833 52.8852 70.89C53.2585 71.1967 53.4585 71.6167 53.4852 72.15H52.5752C52.5552 71.8633 52.4385 71.6333 52.2252 71.46C52.0185 71.2867 51.7385 71.2 51.3852 71.2C51.0585 71.2 50.7985 71.27 50.6052 71.41C50.4119 71.55 50.3152 71.7333 50.3152 71.96C50.3152 72.14 50.3719 72.29 50.4852 72.41C50.6052 72.5233 50.7519 72.6167 50.9252 72.69C51.1052 72.7567 51.3519 72.8333 51.6652 72.92C52.0585 73.0267 52.3785 73.1333 52.6252 73.24C52.8719 73.34 53.0819 73.4933 53.2552 73.7C53.4352 73.9067 53.5285 74.1767 53.5352 74.51C53.5352 74.81 53.4519 75.08 53.2852 75.32C53.1185 75.56 52.8819 75.75 52.5752 75.89C52.2752 76.0233 51.9285 76.09 51.5352 76.09ZM55.2898 69.63C55.1165 69.63 54.9698 69.57 54.8498 69.45C54.7298 69.33 54.6698 69.1833 54.6698 69.01C54.6698 68.8367 54.7298 68.69 54.8498 68.57C54.9698 68.45 55.1165 68.39 55.2898 68.39C55.4565 68.39 55.5965 68.45 55.7098 68.57C55.8298 68.69 55.8898 68.8367 55.8898 69.01C55.8898 69.1833 55.8298 69.33 55.7098 69.45C55.5965 69.57 55.4565 69.63 55.2898 69.63ZM55.7298 70.52V76H54.8198V70.52H55.7298Z" fill="#020202"/>
<path d="M31.3333 24.6667H34.6666V28H31.3333V24.6667ZM31.3333 31.3334H34.6666V41.3334H31.3333V31.3334ZM33 16.3334C23.8 16.3334 16.3333 23.8 16.3333 33C16.3333 42.2 23.8 49.6667 33 49.6667C42.2 49.6667 49.6666 42.2 49.6666 33C49.6666 23.8 42.2 16.3334 33 16.3334ZM33 46.3334C25.65 46.3334 19.6666 40.35 19.6666 33C19.6666 25.65 25.65 19.6667 33 19.6667C40.35 19.6667 46.3333 25.65 46.3333 33C46.3333 40.35 40.35 46.3334 33 46.3334Z" fill="black"/>
</svg>
