<svg width="67" height="80" viewBox="0 0 67 80" fill="none" xmlns="http://www.w3.org/2000/svg">
<circle cx="33.5" cy="32.5" r="32.5" fill="#D60000"/>
<path d="M1.75227 69.03V76H0.842266V69.03H1.75227ZM5.9732 70.42C6.63987 70.42 7.17987 70.6233 7.5932 71.03C8.00654 71.43 8.2132 72.01 8.2132 72.77V76H7.3132V72.9C7.3132 72.3533 7.17654 71.9367 6.9032 71.65C6.62987 71.3567 6.25654 71.21 5.7832 71.21C5.3032 71.21 4.91987 71.36 4.6332 71.66C4.3532 71.96 4.2132 72.3967 4.2132 72.97V76H3.3032V70.52H4.2132V71.3C4.3932 71.02 4.63654 70.8033 4.9432 70.65C5.25654 70.4967 5.59987 70.42 5.9732 70.42ZM11.9297 71.27H10.7797V76H9.86969V71.27H9.15969V70.52H9.86969V70.13C9.86969 69.5167 10.0264 69.07 10.3397 68.79C10.6597 68.5033 11.1697 68.36 11.8697 68.36V69.12C11.4697 69.12 11.1864 69.2 11.0197 69.36C10.8597 69.5133 10.7797 69.77 10.7797 70.13V70.52H11.9297V71.27ZM15.3807 76.09C14.8674 76.09 14.4007 75.9733 13.9807 75.74C13.5674 75.5067 13.2407 75.1767 13.0007 74.75C12.7674 74.3167 12.6507 73.8167 12.6507 73.25C12.6507 72.69 12.7707 72.1967 13.0107 71.77C13.2574 71.3367 13.5907 71.0067 14.0107 70.78C14.4307 70.5467 14.9007 70.43 15.4207 70.43C15.9407 70.43 16.4107 70.5467 16.8307 70.78C17.2507 71.0067 17.5807 71.3333 17.8207 71.76C18.0674 72.1867 18.1907 72.6833 18.1907 73.25C18.1907 73.8167 18.064 74.3167 17.8107 74.75C17.564 75.1767 17.2274 75.5067 16.8007 75.74C16.374 75.9733 15.9007 76.09 15.3807 76.09ZM15.3807 75.29C15.7074 75.29 16.014 75.2133 16.3007 75.06C16.5874 74.9067 16.8174 74.6767 16.9907 74.37C17.1707 74.0633 17.2607 73.69 17.2607 73.25C17.2607 72.81 17.174 72.4367 17.0007 72.13C16.8274 71.8233 16.6007 71.5967 16.3207 71.45C16.0407 71.2967 15.7374 71.22 15.4107 71.22C15.0774 71.22 14.7707 71.2967 14.4907 71.45C14.2174 71.5967 13.9974 71.8233 13.8307 72.13C13.664 72.4367 13.5807 72.81 13.5807 73.25C13.5807 73.6967 13.6607 74.0733 13.8207 74.38C13.9874 74.6867 14.2074 74.9167 14.4807 75.07C14.754 75.2167 15.054 75.29 15.3807 75.29ZM25.7232 76L24.0632 73.15H22.9632V76H22.0532V69.03H24.3032C24.8299 69.03 25.2732 69.12 25.6332 69.3C25.9999 69.48 26.2732 69.7233 26.4532 70.03C26.6332 70.3367 26.7232 70.6867 26.7232 71.08C26.7232 71.56 26.5832 71.9833 26.3032 72.35C26.0299 72.7167 25.6165 72.96 25.0632 73.08L26.8132 76H25.7232ZM22.9632 72.42H24.3032C24.7965 72.42 25.1665 72.3 25.4132 72.06C25.6599 71.8133 25.7832 71.4867 25.7832 71.08C25.7832 70.6667 25.6599 70.3467 25.4132 70.12C25.1732 69.8933 24.8032 69.78 24.3032 69.78H22.9632V72.42ZM33.1372 73.05C33.1372 73.2233 33.1272 73.4067 33.1072 73.6H28.7272C28.7605 74.14 28.9439 74.5633 29.2772 74.87C29.6172 75.17 30.0272 75.32 30.5072 75.32C30.9005 75.32 31.2272 75.23 31.4872 75.05C31.7539 74.8633 31.9405 74.6167 32.0472 74.31H33.0272C32.8805 74.8367 32.5872 75.2667 32.1472 75.6C31.7072 75.9267 31.1605 76.09 30.5072 76.09C29.9872 76.09 29.5205 75.9733 29.1072 75.74C28.7005 75.5067 28.3805 75.1767 28.1472 74.75C27.9139 74.3167 27.7972 73.8167 27.7972 73.25C27.7972 72.6833 27.9105 72.1867 28.1372 71.76C28.3639 71.3333 28.6805 71.0067 29.0872 70.78C29.5005 70.5467 29.9739 70.43 30.5072 70.43C31.0272 70.43 31.4872 70.5433 31.8872 70.77C32.2872 70.9967 32.5939 71.31 32.8072 71.71C33.0272 72.1033 33.1372 72.55 33.1372 73.05ZM32.1972 72.86C32.1972 72.5133 32.1205 72.2167 31.9672 71.97C31.8139 71.7167 31.6039 71.5267 31.3372 71.4C31.0772 71.2667 30.7872 71.2 30.4672 71.2C30.0072 71.2 29.6139 71.3467 29.2872 71.64C28.9672 71.9333 28.7839 72.34 28.7372 72.86H32.1972ZM37.3984 76L35.2484 73.58V76H34.3384V68.6H35.2484V72.95L37.3584 70.52H38.6284L36.0484 73.25L38.6384 76H37.3984ZM44.4848 73.05C44.4848 73.2233 44.4748 73.4067 44.4548 73.6H40.0748C40.1082 74.14 40.2915 74.5633 40.6248 74.87C40.9648 75.17 41.3748 75.32 41.8548 75.32C42.2482 75.32 42.5748 75.23 42.8348 75.05C43.1015 74.8633 43.2882 74.6167 43.3948 74.31H44.3748C44.2282 74.8367 43.9348 75.2667 43.4948 75.6C43.0548 75.9267 42.5082 76.09 41.8548 76.09C41.3348 76.09 40.8682 75.9733 40.4548 75.74C40.0482 75.5067 39.7282 75.1767 39.4948 74.75C39.2615 74.3167 39.1448 73.8167 39.1448 73.25C39.1448 72.6833 39.2582 72.1867 39.4848 71.76C39.7115 71.3333 40.0282 71.0067 40.4348 70.78C40.8482 70.5467 41.3215 70.43 41.8548 70.43C42.3748 70.43 42.8348 70.5433 43.2348 70.77C43.6348 70.9967 43.9415 71.31 44.1548 71.71C44.3748 72.1033 44.4848 72.55 44.4848 73.05ZM43.5448 72.86C43.5448 72.5133 43.4682 72.2167 43.3148 71.97C43.1615 71.7167 42.9515 71.5267 42.6848 71.4C42.4248 71.2667 42.1348 71.2 41.8148 71.2C41.3548 71.2 40.9615 71.3467 40.6348 71.64C40.3148 71.9333 40.1315 72.34 40.0848 72.86H43.5448ZM48.356 70.42C49.0227 70.42 49.5627 70.6233 49.976 71.03C50.3893 71.43 50.596 72.01 50.596 72.77V76H49.696V72.9C49.696 72.3533 49.5593 71.9367 49.286 71.65C49.0127 71.3567 48.6393 71.21 48.166 71.21C47.686 71.21 47.3027 71.36 47.016 71.66C46.736 71.96 46.596 72.3967 46.596 72.97V76H45.686V70.52H46.596V71.3C46.776 71.02 47.0193 70.8033 47.326 70.65C47.6393 70.4967 47.9827 70.42 48.356 70.42ZM52.5525 69.63C52.3792 69.63 52.2325 69.57 52.1125 69.45C51.9925 69.33 51.9325 69.1833 51.9325 69.01C51.9325 68.8367 51.9925 68.69 52.1125 68.57C52.2325 68.45 52.3792 68.39 52.5525 68.39C52.7192 68.39 52.8592 68.45 52.9725 68.57C53.0925 68.69 53.1525 68.8367 53.1525 69.01C53.1525 69.1833 53.0925 69.33 52.9725 69.45C52.8592 69.57 52.7192 69.63 52.5525 69.63ZM52.9925 70.52V76H52.0825V70.52H52.9925ZM57.2134 70.42C57.8801 70.42 58.4201 70.6233 58.8334 71.03C59.2468 71.43 59.4534 72.01 59.4534 72.77V76H58.5534V72.9C58.5534 72.3533 58.4168 71.9367 58.1434 71.65C57.8701 71.3567 57.4968 71.21 57.0234 71.21C56.5434 71.21 56.1601 71.36 55.8734 71.66C55.5934 71.96 55.4534 72.3967 55.4534 72.97V76H54.5434V70.52H55.4534V71.3C55.6334 71.02 55.8768 70.8033 56.1834 70.65C56.4968 70.4967 56.8401 70.42 57.2134 70.42ZM63.1999 70.43C63.6733 70.43 64.0866 70.5333 64.4399 70.74C64.7999 70.9467 65.0666 71.2067 65.2399 71.52V70.52H66.1599V76.12C66.1599 76.62 66.0533 77.0633 65.8399 77.45C65.6266 77.8433 65.3199 78.15 64.9199 78.37C64.5266 78.59 64.0666 78.7 63.5399 78.7C62.8199 78.7 62.2199 78.53 61.7399 78.19C61.2599 77.85 60.9766 77.3867 60.8899 76.8H61.7899C61.8899 77.1333 62.0966 77.4 62.4099 77.6C62.7233 77.8067 63.0999 77.91 63.5399 77.91C64.0399 77.91 64.4466 77.7533 64.7599 77.44C65.0799 77.1267 65.2399 76.6867 65.2399 76.12V74.97C65.0599 75.29 64.7933 75.5567 64.4399 75.77C64.0866 75.9833 63.6733 76.09 63.1999 76.09C62.7133 76.09 62.2699 75.97 61.8699 75.73C61.4766 75.49 61.1666 75.1533 60.9399 74.72C60.7133 74.2867 60.5999 73.7933 60.5999 73.24C60.5999 72.68 60.7133 72.19 60.9399 71.77C61.1666 71.3433 61.4766 71.0133 61.8699 70.78C62.2699 70.5467 62.7133 70.43 63.1999 70.43ZM65.2399 73.25C65.2399 72.8367 65.1566 72.4767 64.9899 72.17C64.8233 71.8633 64.5966 71.63 64.3099 71.47C64.0299 71.3033 63.7199 71.22 63.3799 71.22C63.0399 71.22 62.7299 71.3 62.4499 71.46C62.1699 71.62 61.9466 71.8533 61.7799 72.16C61.6133 72.4667 61.5299 72.8267 61.5299 73.24C61.5299 73.66 61.6133 74.0267 61.7799 74.34C61.9466 74.6467 62.1699 74.8833 62.4499 75.05C62.7299 75.21 63.0399 75.29 63.3799 75.29C63.7199 75.29 64.0299 75.21 64.3099 75.05C64.5966 74.8833 64.8233 74.6467 64.9899 74.34C65.1566 74.0267 65.2399 73.6633 65.2399 73.25Z" fill="#020202"/>
<path d="M33 23C34.8334 23 36.3334 24.5 36.3334 26.3334C36.3334 28.1667 34.8334 29.6667 33 29.6667C31.1667 29.6667 29.6667 28.1667 29.6667 26.3334C29.6667 24.5 31.1667 23 33 23ZM33 39.6667C37.5 39.6667 42.6667 41.8167 43 43H23C23.3834 41.8 28.5167 39.6667 33 39.6667ZM33 19.6667C29.3167 19.6667 26.3334 22.65 26.3334 26.3334C26.3334 30.0167 29.3167 33 33 33C36.6834 33 39.6667 30.0167 39.6667 26.3334C39.6667 22.65 36.6834 19.6667 33 19.6667ZM33 36.3334C28.55 36.3334 19.6667 38.5667 19.6667 43V46.3334H46.3334V43C46.3334 38.5667 37.45 36.3334 33 36.3334Z" fill="black"/>
</svg>
