<svg width="80" height="80" viewBox="0 0 80 80" fill="none" xmlns="http://www.w3.org/2000/svg">
<circle cx="40.5" cy="32.5" r="32.5" fill="#D60000"/>
<path d="M7.13688 69.08V76H6.22688V70.84L3.92688 76H3.28688L0.976875 70.83V76H0.0668751V69.08H1.04688L3.60688 74.8L6.16688 69.08H7.13688ZM13.5402 70.52V76H12.6302V75.19C12.4568 75.47 12.2135 75.69 11.9002 75.85C11.5935 76.0033 11.2535 76.08 10.8802 76.08C10.4535 76.08 10.0702 75.9933 9.73016 75.82C9.39016 75.64 9.12016 75.3733 8.92016 75.02C8.72682 74.6667 8.63016 74.2367 8.63016 73.73V70.52H9.53016V73.61C9.53016 74.15 9.66682 74.5667 9.94016 74.86C10.2135 75.1467 10.5868 75.29 11.0602 75.29C11.5468 75.29 11.9302 75.14 12.2102 74.84C12.4902 74.54 12.6302 74.1033 12.6302 73.53V70.52H13.5402ZM16.1866 71.27V74.5C16.1866 74.7667 16.2433 74.9567 16.3566 75.07C16.47 75.1767 16.6666 75.23 16.9466 75.23H17.6166V76H16.7966C16.29 76 15.91 75.8833 15.6566 75.65C15.4033 75.4167 15.2766 75.0333 15.2766 74.5V71.27H14.5666V70.52H15.2766V69.14H16.1866V70.52H17.6166V71.27H16.1866ZM18.3792 73.24C18.3792 72.68 18.4926 72.19 18.7192 71.77C18.9459 71.3433 19.2559 71.0133 19.6492 70.78C20.0492 70.5467 20.4926 70.43 20.9792 70.43C21.4592 70.43 21.8759 70.5333 22.2292 70.74C22.5826 70.9467 22.8459 71.2067 23.0192 71.52V70.52H23.9392V76H23.0192V74.98C22.8392 75.3 22.5692 75.5667 22.2092 75.78C21.8559 75.9867 21.4426 76.09 20.9692 76.09C20.4826 76.09 20.0426 75.97 19.6492 75.73C19.2559 75.49 18.9459 75.1533 18.7192 74.72C18.4926 74.2867 18.3792 73.7933 18.3792 73.24ZM23.0192 73.25C23.0192 72.8367 22.9359 72.4767 22.7692 72.17C22.6026 71.8633 22.3759 71.63 22.0892 71.47C21.8092 71.3033 21.4992 71.22 21.1592 71.22C20.8192 71.22 20.5092 71.3 20.2292 71.46C19.9492 71.62 19.7259 71.8533 19.5592 72.16C19.3926 72.4667 19.3092 72.8267 19.3092 73.24C19.3092 73.66 19.3926 74.0267 19.5592 74.34C19.7259 74.6467 19.9492 74.8833 20.2292 75.05C20.5092 75.21 20.8192 75.29 21.1592 75.29C21.4992 75.29 21.8092 75.21 22.0892 75.05C22.3759 74.8833 22.6026 74.6467 22.7692 74.34C22.9359 74.0267 23.0192 73.6633 23.0192 73.25ZM27.417 76.09C26.997 76.09 26.6204 76.02 26.287 75.88C25.9537 75.7333 25.6904 75.5333 25.497 75.28C25.3037 75.02 25.197 74.7233 25.177 74.39H26.117C26.1437 74.6633 26.2704 74.8867 26.497 75.06C26.7304 75.2333 27.0337 75.32 27.407 75.32C27.7537 75.32 28.027 75.2433 28.227 75.09C28.427 74.9367 28.527 74.7433 28.527 74.51C28.527 74.27 28.4204 74.0933 28.207 73.98C27.9937 73.86 27.6637 73.7433 27.217 73.63C26.8104 73.5233 26.477 73.4167 26.217 73.31C25.9637 73.1967 25.7437 73.0333 25.557 72.82C25.377 72.6 25.287 72.3133 25.287 71.96C25.287 71.68 25.3704 71.4233 25.537 71.19C25.7037 70.9567 25.9404 70.7733 26.247 70.64C26.5537 70.5 26.9037 70.43 27.297 70.43C27.9037 70.43 28.3937 70.5833 28.767 70.89C29.1404 71.1967 29.3404 71.6167 29.367 72.15H28.457C28.437 71.8633 28.3204 71.6333 28.107 71.46C27.9004 71.2867 27.6204 71.2 27.267 71.2C26.9404 71.2 26.6804 71.27 26.487 71.41C26.2937 71.55 26.197 71.7333 26.197 71.96C26.197 72.14 26.2537 72.29 26.367 72.41C26.487 72.5233 26.6337 72.6167 26.807 72.69C26.987 72.7567 27.2337 72.8333 27.547 72.92C27.9404 73.0267 28.2604 73.1333 28.507 73.24C28.7537 73.34 28.9637 73.4933 29.137 73.7C29.317 73.9067 29.4104 74.1767 29.417 74.51C29.417 74.81 29.3337 75.08 29.167 75.32C29.0004 75.56 28.7637 75.75 28.457 75.89C28.157 76.0233 27.8104 76.09 27.417 76.09ZM31.1716 69.63C30.9983 69.63 30.8516 69.57 30.7316 69.45C30.6116 69.33 30.5516 69.1833 30.5516 69.01C30.5516 68.8367 30.6116 68.69 30.7316 68.57C30.8516 68.45 30.9983 68.39 31.1716 68.39C31.3383 68.39 31.4783 68.45 31.5916 68.57C31.7116 68.69 31.7716 68.8367 31.7716 69.01C31.7716 69.1833 31.7116 69.33 31.5916 69.45C31.4783 69.57 31.3383 69.63 31.1716 69.63ZM31.6116 70.52V76H30.7016V70.52H31.6116ZM39.4986 76L37.8386 73.15H36.7386V76H35.8286V69.03H38.0786C38.6053 69.03 39.0486 69.12 39.4086 69.3C39.7753 69.48 40.0486 69.7233 40.2286 70.03C40.4086 70.3367 40.4986 70.6867 40.4986 71.08C40.4986 71.56 40.3586 71.9833 40.0786 72.35C39.8053 72.7167 39.3919 72.96 38.8386 73.08L40.5886 76H39.4986ZM36.7386 72.42H38.0786C38.5719 72.42 38.9419 72.3 39.1886 72.06C39.4353 71.8133 39.5586 71.4867 39.5586 71.08C39.5586 70.6667 39.4353 70.3467 39.1886 70.12C38.9486 69.8933 38.5786 69.78 38.0786 69.78H36.7386V72.42ZM46.9126 73.05C46.9126 73.2233 46.9026 73.4067 46.8826 73.6H42.5026C42.5359 74.14 42.7192 74.5633 43.0526 74.87C43.3926 75.17 43.8026 75.32 44.2826 75.32C44.6759 75.32 45.0026 75.23 45.2626 75.05C45.5292 74.8633 45.7159 74.6167 45.8226 74.31H46.8026C46.6559 74.8367 46.3626 75.2667 45.9226 75.6C45.4826 75.9267 44.9359 76.09 44.2826 76.09C43.7626 76.09 43.2959 75.9733 42.8826 75.74C42.4759 75.5067 42.1559 75.1767 41.9226 74.75C41.6892 74.3167 41.5726 73.8167 41.5726 73.25C41.5726 72.6833 41.6859 72.1867 41.9126 71.76C42.1392 71.3333 42.4559 71.0067 42.8626 70.78C43.2759 70.5467 43.7492 70.43 44.2826 70.43C44.8026 70.43 45.2626 70.5433 45.6626 70.77C46.0626 70.9967 46.3692 71.31 46.5826 71.71C46.8026 72.1033 46.9126 72.55 46.9126 73.05ZM45.9726 72.86C45.9726 72.5133 45.8959 72.2167 45.7426 71.97C45.5892 71.7167 45.3792 71.5267 45.1126 71.4C44.8526 71.2667 44.5626 71.2 44.2426 71.2C43.7826 71.2 43.3892 71.3467 43.0626 71.64C42.7426 71.9333 42.5592 72.34 42.5126 72.86H45.9726ZM51.1738 76L49.0238 73.58V76H48.1138V68.6H49.0238V72.95L51.1338 70.52H52.4038L49.8238 73.25L52.4138 76H51.1738ZM58.2602 73.05C58.2602 73.2233 58.2502 73.4067 58.2302 73.6H53.8502C53.8836 74.14 54.0669 74.5633 54.4002 74.87C54.7402 75.17 55.1502 75.32 55.6302 75.32C56.0236 75.32 56.3502 75.23 56.6102 75.05C56.8769 74.8633 57.0636 74.6167 57.1702 74.31H58.1502C58.0036 74.8367 57.7102 75.2667 57.2702 75.6C56.8302 75.9267 56.2836 76.09 55.6302 76.09C55.1102 76.09 54.6436 75.9733 54.2302 75.74C53.8236 75.5067 53.5036 75.1767 53.2702 74.75C53.0369 74.3167 52.9202 73.8167 52.9202 73.25C52.9202 72.6833 53.0336 72.1867 53.2602 71.76C53.4869 71.3333 53.8036 71.0067 54.2102 70.78C54.6236 70.5467 55.0969 70.43 55.6302 70.43C56.1502 70.43 56.6102 70.5433 57.0102 70.77C57.4102 70.9967 57.7169 71.31 57.9302 71.71C58.1502 72.1033 58.2602 72.55 58.2602 73.05ZM57.3202 72.86C57.3202 72.5133 57.2436 72.2167 57.0902 71.97C56.9369 71.7167 56.7269 71.5267 56.4602 71.4C56.2002 71.2667 55.9102 71.2 55.5902 71.2C55.1302 71.2 54.7369 71.3467 54.4102 71.64C54.0902 71.9333 53.9069 72.34 53.8602 72.86H57.3202ZM62.1314 70.42C62.7981 70.42 63.3381 70.6233 63.7514 71.03C64.1647 71.43 64.3714 72.01 64.3714 72.77V76H63.4714V72.9C63.4714 72.3533 63.3347 71.9367 63.0614 71.65C62.7881 71.3567 62.4147 71.21 61.9414 71.21C61.4614 71.21 61.0781 71.36 60.7914 71.66C60.5114 71.96 60.3714 72.3967 60.3714 72.97V76H59.4614V70.52H60.3714V71.3C60.5514 71.02 60.7947 70.8033 61.1014 70.65C61.4147 70.4967 61.7581 70.42 62.1314 70.42ZM66.3279 69.63C66.1546 69.63 66.0079 69.57 65.8879 69.45C65.7679 69.33 65.7079 69.1833 65.7079 69.01C65.7079 68.8367 65.7679 68.69 65.8879 68.57C66.0079 68.45 66.1546 68.39 66.3279 68.39C66.4946 68.39 66.6346 68.45 66.7479 68.57C66.8679 68.69 66.9279 68.8367 66.9279 69.01C66.9279 69.1833 66.8679 69.33 66.7479 69.45C66.6346 69.57 66.4946 69.63 66.3279 69.63ZM66.7679 70.52V76H65.8579V70.52H66.7679ZM70.9888 70.42C71.6555 70.42 72.1955 70.6233 72.6088 71.03C73.0222 71.43 73.2288 72.01 73.2288 72.77V76H72.3288V72.9C72.3288 72.3533 72.1922 71.9367 71.9188 71.65C71.6455 71.3567 71.2722 71.21 70.7988 71.21C70.3188 71.21 69.9355 71.36 69.6488 71.66C69.3688 71.96 69.2288 72.3967 69.2288 72.97V76H68.3188V70.52H69.2288V71.3C69.4088 71.02 69.6522 70.8033 69.9588 70.65C70.2722 70.4967 70.6155 70.42 70.9888 70.42ZM76.9753 70.43C77.4486 70.43 77.862 70.5333 78.2153 70.74C78.5753 70.9467 78.842 71.2067 79.0153 71.52V70.52H79.9353V76.12C79.9353 76.62 79.8286 77.0633 79.6153 77.45C79.402 77.8433 79.0953 78.15 78.6953 78.37C78.302 78.59 77.842 78.7 77.3153 78.7C76.5953 78.7 75.9953 78.53 75.5153 78.19C75.0353 77.85 74.752 77.3867 74.6653 76.8H75.5653C75.6653 77.1333 75.872 77.4 76.1853 77.6C76.4986 77.8067 76.8753 77.91 77.3153 77.91C77.8153 77.91 78.222 77.7533 78.5353 77.44C78.8553 77.1267 79.0153 76.6867 79.0153 76.12V74.97C78.8353 75.29 78.5686 75.5567 78.2153 75.77C77.862 75.9833 77.4486 76.09 76.9753 76.09C76.4886 76.09 76.0453 75.97 75.6453 75.73C75.252 75.49 74.942 75.1533 74.7153 74.72C74.4886 74.2867 74.3753 73.7933 74.3753 73.24C74.3753 72.68 74.4886 72.19 74.7153 71.77C74.942 71.3433 75.252 71.0133 75.6453 70.78C76.0453 70.5467 76.4886 70.43 76.9753 70.43ZM79.0153 73.25C79.0153 72.8367 78.932 72.4767 78.7653 72.17C78.5986 71.8633 78.372 71.63 78.0853 71.47C77.8053 71.3033 77.4953 71.22 77.1553 71.22C76.8153 71.22 76.5053 71.3 76.2253 71.46C75.9453 71.62 75.722 71.8533 75.5553 72.16C75.3886 72.4667 75.3053 72.8267 75.3053 73.24C75.3053 73.66 75.3886 74.0267 75.5553 74.34C75.722 74.6467 75.9453 74.8833 76.2253 75.05C76.5053 75.21 76.8153 75.29 77.1553 75.29C77.4953 75.29 77.8053 75.21 78.0853 75.05C78.372 74.8833 78.5986 74.6467 78.7653 74.34C78.932 74.0267 79.0153 73.6633 79.0153 73.25Z" fill="#020202"/>
<path d="M33.3333 39.6666H46.6667V43H33.3333V39.6666ZM33.3333 33H46.6667V36.3333H33.3333V33ZM43.3333 16.3333H30C28.1667 16.3333 26.6667 17.8333 26.6667 19.6666V46.3333C26.6667 48.1666 28.15 49.6666 29.9833 49.6666H50C51.8333 49.6666 53.3333 48.1666 53.3333 46.3333V26.3333L43.3333 16.3333ZM50 46.3333H30V19.6666H41.6667V28H50V46.3333Z" fill="black"/>
</svg>
