<svg width="67" height="80" viewBox="0 0 67 80" fill="none" xmlns="http://www.w3.org/2000/svg">
<circle cx="33.5" cy="32.5" r="32.5" fill="#D60000"/>
<path d="M11.765 71.07C11.765 71.65 11.565 72.1333 11.165 72.52C10.7716 72.9 10.1683 73.09 9.35496 73.09H8.01496V76H7.10496V69.03H9.35496C10.1416 69.03 10.7383 69.22 11.145 69.6C11.5583 69.98 11.765 70.47 11.765 71.07ZM9.35496 72.34C9.86163 72.34 10.235 72.23 10.475 72.01C10.715 71.79 10.835 71.4767 10.835 71.07C10.835 70.21 10.3416 69.78 9.35496 69.78H8.01496V72.34H9.35496ZM17.896 73.05C17.896 73.2233 17.886 73.4067 17.866 73.6H13.486C13.5193 74.14 13.7026 74.5633 14.036 74.87C14.376 75.17 14.786 75.32 15.266 75.32C15.6593 75.32 15.986 75.23 16.246 75.05C16.5126 74.8633 16.6993 74.6167 16.806 74.31H17.786C17.6393 74.8367 17.346 75.2667 16.906 75.6C16.466 75.9267 15.9193 76.09 15.266 76.09C14.746 76.09 14.2793 75.9733 13.866 75.74C13.4593 75.5067 13.1393 75.1767 12.906 74.75C12.6726 74.3167 12.556 73.8167 12.556 73.25C12.556 72.6833 12.6693 72.1867 12.896 71.76C13.1226 71.3333 13.4393 71.0067 13.846 70.78C14.2593 70.5467 14.7326 70.43 15.266 70.43C15.786 70.43 16.246 70.5433 16.646 70.77C17.046 70.9967 17.3526 71.31 17.566 71.71C17.786 72.1033 17.896 72.55 17.896 73.05ZM16.956 72.86C16.956 72.5133 16.8793 72.2167 16.726 71.97C16.5726 71.7167 16.3626 71.5267 16.096 71.4C15.836 71.2667 15.546 71.2 15.226 71.2C14.766 71.2 14.3726 71.3467 14.046 71.64C13.726 71.9333 13.5426 72.34 13.496 72.86H16.956ZM25.6871 70.42C26.1138 70.42 26.4938 70.51 26.8271 70.69C27.1605 70.8633 27.4238 71.1267 27.6171 71.48C27.8105 71.8333 27.9071 72.2633 27.9071 72.77V76H27.0071V72.9C27.0071 72.3533 26.8705 71.9367 26.5971 71.65C26.3305 71.3567 25.9671 71.21 25.5071 71.21C25.0338 71.21 24.6571 71.3633 24.3771 71.67C24.0971 71.97 23.9571 72.4067 23.9571 72.98V76H23.0571V72.9C23.0571 72.3533 22.9205 71.9367 22.6471 71.65C22.3805 71.3567 22.0171 71.21 21.5571 71.21C21.0838 71.21 20.7071 71.3633 20.4271 71.67C20.1471 71.97 20.0071 72.4067 20.0071 72.98V76H19.0971V70.52H20.0071V71.31C20.1871 71.0233 20.4271 70.8033 20.7271 70.65C21.0338 70.4967 21.3705 70.42 21.7371 70.42C22.1971 70.42 22.6038 70.5233 22.9571 70.73C23.3105 70.9367 23.5738 71.24 23.7471 71.64C23.9005 71.2533 24.1538 70.9533 24.5071 70.74C24.8605 70.5267 25.2538 70.42 25.6871 70.42ZM30.3099 71.54C30.4965 71.2133 30.7699 70.9467 31.1299 70.74C31.4899 70.5333 31.8999 70.43 32.3599 70.43C32.8532 70.43 33.2965 70.5467 33.6899 70.78C34.0832 71.0133 34.3932 71.3433 34.6199 71.77C34.8465 72.19 34.9599 72.68 34.9599 73.24C34.9599 73.7933 34.8465 74.2867 34.6199 74.72C34.3932 75.1533 34.0799 75.49 33.6799 75.73C33.2865 75.97 32.8465 76.09 32.3599 76.09C31.8865 76.09 31.4699 75.9867 31.1099 75.78C30.7565 75.5733 30.4899 75.31 30.3099 74.99V76H29.3999V68.6H30.3099V71.54ZM34.0299 73.24C34.0299 72.8267 33.9465 72.4667 33.7799 72.16C33.6132 71.8533 33.3865 71.62 33.0999 71.46C32.8199 71.3 32.5099 71.22 32.1699 71.22C31.8365 71.22 31.5265 71.3033 31.2399 71.47C30.9599 71.63 30.7332 71.8667 30.5599 72.18C30.3932 72.4867 30.3099 72.8433 30.3099 73.25C30.3099 73.6633 30.3932 74.0267 30.5599 74.34C30.7332 74.6467 30.9599 74.8833 31.2399 75.05C31.5265 75.21 31.8365 75.29 32.1699 75.29C32.5099 75.29 32.8199 75.21 33.0999 75.05C33.3865 74.8833 33.6132 74.6467 33.7799 74.34C33.9465 74.0267 34.0299 73.66 34.0299 73.24ZM41.1577 73.05C41.1577 73.2233 41.1477 73.4067 41.1277 73.6H36.7477C36.781 74.14 36.9644 74.5633 37.2977 74.87C37.6377 75.17 38.0477 75.32 38.5277 75.32C38.921 75.32 39.2477 75.23 39.5077 75.05C39.7744 74.8633 39.961 74.6167 40.0677 74.31H41.0477C40.901 74.8367 40.6077 75.2667 40.1677 75.6C39.7277 75.9267 39.181 76.09 38.5277 76.09C38.0077 76.09 37.541 75.9733 37.1277 75.74C36.721 75.5067 36.401 75.1767 36.1677 74.75C35.9344 74.3167 35.8177 73.8167 35.8177 73.25C35.8177 72.6833 35.931 72.1867 36.1577 71.76C36.3844 71.3333 36.701 71.0067 37.1077 70.78C37.521 70.5467 37.9944 70.43 38.5277 70.43C39.0477 70.43 39.5077 70.5433 39.9077 70.77C40.3077 70.9967 40.6144 71.31 40.8277 71.71C41.0477 72.1033 41.1577 72.55 41.1577 73.05ZM40.2177 72.86C40.2177 72.5133 40.141 72.2167 39.9877 71.97C39.8344 71.7167 39.6244 71.5267 39.3577 71.4C39.0977 71.2667 38.8077 71.2 38.4877 71.2C38.0277 71.2 37.6344 71.3467 37.3077 71.64C36.9877 71.9333 36.8044 72.34 36.7577 72.86H40.2177ZM43.2689 68.6V76H42.3589V68.6H43.2689ZM45.2898 69.63C45.1165 69.63 44.9698 69.57 44.8498 69.45C44.7298 69.33 44.6698 69.1833 44.6698 69.01C44.6698 68.8367 44.7298 68.69 44.8498 68.57C44.9698 68.45 45.1165 68.39 45.2898 68.39C45.4565 68.39 45.5965 68.45 45.7098 68.57C45.8298 68.69 45.8898 68.8367 45.8898 69.01C45.8898 69.1833 45.8298 69.33 45.7098 69.45C45.5965 69.57 45.4565 69.63 45.2898 69.63ZM45.7298 70.52V76H44.8198V70.52H45.7298ZM46.9407 73.24C46.9407 72.68 47.0541 72.19 47.2807 71.77C47.5074 71.3433 47.8174 71.0133 48.2107 70.78C48.6107 70.5467 49.0541 70.43 49.5407 70.43C50.0207 70.43 50.4374 70.5333 50.7907 70.74C51.1441 70.9467 51.4074 71.2067 51.5807 71.52V70.52H52.5007V76H51.5807V74.98C51.4007 75.3 51.1307 75.5667 50.7707 75.78C50.4174 75.9867 50.0041 76.09 49.5307 76.09C49.0441 76.09 48.6041 75.97 48.2107 75.73C47.8174 75.49 47.5074 75.1533 47.2807 74.72C47.0541 74.2867 46.9407 73.7933 46.9407 73.24ZM51.5807 73.25C51.5807 72.8367 51.4974 72.4767 51.3307 72.17C51.1641 71.8633 50.9374 71.63 50.6507 71.47C50.3707 71.3033 50.0607 71.22 49.7207 71.22C49.3807 71.22 49.0707 71.3 48.7907 71.46C48.5107 71.62 48.2874 71.8533 48.1207 72.16C47.9541 72.4667 47.8707 72.8267 47.8707 73.24C47.8707 73.66 47.9541 74.0267 48.1207 74.34C48.2874 74.6467 48.5107 74.8833 48.7907 75.05C49.0707 75.21 49.3807 75.29 49.7207 75.29C50.0607 75.29 50.3707 75.21 50.6507 75.05C50.9374 74.8833 51.1641 74.6467 51.3307 74.34C51.4974 74.0267 51.5807 73.6633 51.5807 73.25ZM56.7086 70.42C57.3752 70.42 57.9152 70.6233 58.3286 71.03C58.7419 71.43 58.9486 72.01 58.9486 72.77V76H58.0486V72.9C58.0486 72.3533 57.9119 71.9367 57.6386 71.65C57.3652 71.3567 56.9919 71.21 56.5186 71.21C56.0386 71.21 55.6552 71.36 55.3686 71.66C55.0886 71.96 54.9486 72.3967 54.9486 72.97V76H54.0386V70.52H54.9486V71.3C55.1286 71.02 55.3719 70.8033 55.6786 70.65C55.9919 70.4967 56.3352 70.42 56.7086 70.42Z" fill="#020202"/>
<path d="M38.9167 34.6666C40.1667 34.6666 41.2667 33.9833 41.8334 32.95L47.8 22.1333C48.4167 21.0333 47.6167 19.6666 46.35 19.6666H21.6834L20.1167 16.3333H14.6667V19.6666H18L24 32.3166L21.75 36.3833C20.5334 38.6166 22.1334 41.3333 24.6667 41.3333H44.6667V38H24.6667L26.5 34.6666H38.9167ZM23.2667 23H43.5167L38.9167 31.3333H27.2167L23.2667 23ZM24.6667 43C22.8334 43 21.35 44.5 21.35 46.3333C21.35 48.1666 22.8334 49.6666 24.6667 49.6666C26.5 49.6666 28 48.1666 28 46.3333C28 44.5 26.5 43 24.6667 43ZM41.3334 43C39.5 43 38.0167 44.5 38.0167 46.3333C38.0167 48.1666 39.5 49.6666 41.3334 49.6666C43.1667 49.6666 44.6667 48.1666 44.6667 46.3333C44.6667 44.5 43.1667 43 41.3334 43Z" fill="black"/>
</svg>
