<svg width="67" height="80" viewBox="0 0 67 80" fill="none" xmlns="http://www.w3.org/2000/svg">
<circle cx="33.5" cy="32.5" r="32.5" fill="#D60000"/>
<path d="M5.88606 71.07C5.88606 71.65 5.68606 72.1333 5.28605 72.52C4.89272 72.9 4.28939 73.09 3.47605 73.09H2.13605V76H1.22605V69.03H3.47605C4.26272 69.03 4.85939 69.22 5.26606 69.6C5.67939 69.98 5.88606 70.47 5.88606 71.07ZM3.47605 72.34C3.98272 72.34 4.35605 72.23 4.59606 72.01C4.83605 71.79 4.95605 71.4767 4.95605 71.07C4.95605 70.21 4.46272 69.78 3.47605 69.78H2.13605V72.34H3.47605ZM12.0171 73.05C12.0171 73.2233 12.0071 73.4067 11.9871 73.6H7.60707C7.6404 74.14 7.82374 74.5633 8.15707 74.87C8.49707 75.17 8.90707 75.32 9.38707 75.32C9.7804 75.32 10.1071 75.23 10.3671 75.05C10.6337 74.8633 10.8204 74.6167 10.9271 74.31H11.9071C11.7604 74.8367 11.4671 75.2667 11.0271 75.6C10.5871 75.9267 10.0404 76.09 9.38707 76.09C8.86707 76.09 8.4004 75.9733 7.98707 75.74C7.5804 75.5067 7.2604 75.1767 7.02707 74.75C6.79374 74.3167 6.67707 73.8167 6.67707 73.25C6.67707 72.6833 6.7904 72.1867 7.01707 71.76C7.24374 71.3333 7.5604 71.0067 7.96707 70.78C8.3804 70.5467 8.85374 70.43 9.38707 70.43C9.90707 70.43 10.3671 70.5433 10.7671 70.77C11.1671 70.9967 11.4737 71.31 11.6871 71.71C11.9071 72.1033 12.0171 72.55 12.0171 73.05ZM11.0771 72.86C11.0771 72.5133 11.0004 72.2167 10.8471 71.97C10.6937 71.7167 10.4837 71.5267 10.2171 71.4C9.95707 71.2667 9.66707 71.2 9.34707 71.2C8.88707 71.2 8.49374 71.3467 8.16707 71.64C7.84707 71.9333 7.66374 72.34 7.61707 72.86H11.0771ZM19.8082 70.42C20.2349 70.42 20.6149 70.51 20.9482 70.69C21.2816 70.8633 21.5449 71.1267 21.7382 71.48C21.9316 71.8333 22.0282 72.2633 22.0282 72.77V76H21.1282V72.9C21.1282 72.3533 20.9916 71.9367 20.7182 71.65C20.4516 71.3567 20.0882 71.21 19.6282 71.21C19.1549 71.21 18.7782 71.3633 18.4982 71.67C18.2182 71.97 18.0782 72.4067 18.0782 72.98V76H17.1782V72.9C17.1782 72.3533 17.0416 71.9367 16.7682 71.65C16.5016 71.3567 16.1382 71.21 15.6782 71.21C15.2049 71.21 14.8282 71.3633 14.5482 71.67C14.2682 71.97 14.1282 72.4067 14.1282 72.98V76H13.2182V70.52H14.1282V71.31C14.3082 71.0233 14.5482 70.8033 14.8482 70.65C15.1549 70.4967 15.4916 70.42 15.8582 70.42C16.3182 70.42 16.7249 70.5233 17.0782 70.73C17.4316 70.9367 17.6949 71.24 17.8682 71.64C18.0216 71.2533 18.2749 70.9533 18.6282 70.74C18.9816 70.5267 19.3749 70.42 19.8082 70.42ZM24.431 71.54C24.6176 71.2133 24.891 70.9467 25.251 70.74C25.611 70.5333 26.021 70.43 26.481 70.43C26.9743 70.43 27.4176 70.5467 27.811 70.78C28.2043 71.0133 28.5143 71.3433 28.741 71.77C28.9676 72.19 29.081 72.68 29.081 73.24C29.081 73.7933 28.9676 74.2867 28.741 74.72C28.5143 75.1533 28.201 75.49 27.801 75.73C27.4076 75.97 26.9676 76.09 26.481 76.09C26.0076 76.09 25.591 75.9867 25.231 75.78C24.8776 75.5733 24.611 75.31 24.431 74.99V76H23.521V68.6H24.431V71.54ZM28.151 73.24C28.151 72.8267 28.0676 72.4667 27.901 72.16C27.7343 71.8533 27.5076 71.62 27.221 71.46C26.941 71.3 26.631 71.22 26.291 71.22C25.9576 71.22 25.6476 71.3033 25.361 71.47C25.081 71.63 24.8543 71.8667 24.681 72.18C24.5143 72.4867 24.431 72.8433 24.431 73.25C24.431 73.6633 24.5143 74.0267 24.681 74.34C24.8543 74.6467 25.081 74.8833 25.361 75.05C25.6476 75.21 25.9576 75.29 26.291 75.29C26.631 75.29 26.941 75.21 27.221 75.05C27.5076 74.8833 27.7343 74.6467 27.901 74.34C28.0676 74.0267 28.151 73.66 28.151 73.24ZM29.9388 73.24C29.9388 72.68 30.0521 72.19 30.2788 71.77C30.5055 71.3433 30.8155 71.0133 31.2088 70.78C31.6088 70.5467 32.0521 70.43 32.5388 70.43C33.0188 70.43 33.4355 70.5333 33.7888 70.74C34.1421 70.9467 34.4055 71.2067 34.5788 71.52V70.52H35.4988V76H34.5788V74.98C34.3988 75.3 34.1288 75.5667 33.7688 75.78C33.4155 75.9867 33.0021 76.09 32.5288 76.09C32.0421 76.09 31.6021 75.97 31.2088 75.73C30.8155 75.49 30.5055 75.1533 30.2788 74.72C30.0521 74.2867 29.9388 73.7933 29.9388 73.24ZM34.5788 73.25C34.5788 72.8367 34.4955 72.4767 34.3288 72.17C34.1621 71.8633 33.9355 71.63 33.6488 71.47C33.3688 71.3033 33.0588 71.22 32.7188 71.22C32.3788 71.22 32.0688 71.3 31.7888 71.46C31.5088 71.62 31.2855 71.8533 31.1188 72.16C30.9521 72.4667 30.8688 72.8267 30.8688 73.24C30.8688 73.66 30.9521 74.0267 31.1188 74.34C31.2855 74.6467 31.5088 74.8833 31.7888 75.05C32.0688 75.21 32.3788 75.29 32.7188 75.29C33.0588 75.29 33.3688 75.21 33.6488 75.05C33.9355 74.8833 34.1621 74.6467 34.3288 74.34C34.4955 74.0267 34.5788 73.6633 34.5788 73.25ZM41.7566 70.52L38.4566 78.58H37.5166L38.5966 75.94L36.3866 70.52H37.3966L39.1166 74.96L40.8166 70.52H41.7566ZM42.3314 73.24C42.3314 72.68 42.4447 72.19 42.6714 71.77C42.898 71.3433 43.208 71.0133 43.6014 70.78C44.0014 70.5467 44.4447 70.43 44.9314 70.43C45.4114 70.43 45.828 70.5333 46.1814 70.74C46.5347 70.9467 46.798 71.2067 46.9714 71.52V70.52H47.8914V76H46.9714V74.98C46.7914 75.3 46.5214 75.5667 46.1614 75.78C45.808 75.9867 45.3947 76.09 44.9214 76.09C44.4347 76.09 43.9947 75.97 43.6014 75.73C43.208 75.49 42.898 75.1533 42.6714 74.72C42.4447 74.2867 42.3314 73.7933 42.3314 73.24ZM46.9714 73.25C46.9714 72.8367 46.888 72.4767 46.7214 72.17C46.5547 71.8633 46.328 71.63 46.0414 71.47C45.7614 71.3033 45.4514 71.22 45.1114 71.22C44.7714 71.22 44.4614 71.3 44.1814 71.46C43.9014 71.62 43.678 71.8533 43.5114 72.16C43.3447 72.4667 43.2614 72.8267 43.2614 73.24C43.2614 73.66 43.3447 74.0267 43.5114 74.34C43.678 74.6467 43.9014 74.8833 44.1814 75.05C44.4614 75.21 44.7714 75.29 45.1114 75.29C45.4514 75.29 45.7614 75.21 46.0414 75.05C46.328 74.8833 46.5547 74.6467 46.7214 74.34C46.888 74.0267 46.9714 73.6633 46.9714 73.25ZM50.3392 71.41C50.4992 71.0967 50.7258 70.8533 51.0192 70.68C51.3192 70.5067 51.6825 70.42 52.1092 70.42V71.36H51.8692C50.8492 71.36 50.3392 71.9133 50.3392 73.02V76H49.4292V70.52H50.3392V71.41ZM52.8196 73.24C52.8196 72.68 52.933 72.19 53.1596 71.77C53.3863 71.3433 53.6963 71.0133 54.0896 70.78C54.4896 70.5467 54.933 70.43 55.4196 70.43C55.8996 70.43 56.3163 70.5333 56.6696 70.74C57.023 70.9467 57.2863 71.2067 57.4596 71.52V70.52H58.3796V76H57.4596V74.98C57.2796 75.3 57.0096 75.5667 56.6496 75.78C56.2963 75.9867 55.883 76.09 55.4096 76.09C54.923 76.09 54.483 75.97 54.0896 75.73C53.6963 75.49 53.3863 75.1533 53.1596 74.72C52.933 74.2867 52.8196 73.7933 52.8196 73.24ZM57.4596 73.25C57.4596 72.8367 57.3763 72.4767 57.2096 72.17C57.043 71.8633 56.8163 71.63 56.5296 71.47C56.2496 71.3033 55.9396 71.22 55.5996 71.22C55.2596 71.22 54.9496 71.3 54.6696 71.46C54.3896 71.62 54.1663 71.8533 53.9996 72.16C53.833 72.4667 53.7496 72.8267 53.7496 73.24C53.7496 73.66 53.833 74.0267 53.9996 74.34C54.1663 74.6467 54.3896 74.8833 54.6696 75.05C54.9496 75.21 55.2596 75.29 55.5996 75.29C55.9396 75.29 56.2496 75.21 56.5296 75.05C56.8163 74.8833 57.043 74.6467 57.2096 74.34C57.3763 74.0267 57.4596 73.6633 57.4596 73.25ZM62.5875 70.42C63.2541 70.42 63.7941 70.6233 64.2075 71.03C64.6208 71.43 64.8275 72.01 64.8275 72.77V76H63.9275V72.9C63.9275 72.3533 63.7908 71.9367 63.5175 71.65C63.2441 71.3567 62.8708 71.21 62.3975 71.21C61.9175 71.21 61.5341 71.36 61.2475 71.66C60.9675 71.96 60.8275 72.3967 60.8275 72.97V76H59.9175V70.52H60.8275V71.3C61.0075 71.02 61.2508 70.8033 61.5575 70.65C61.8708 70.4967 62.2141 70.42 62.5875 70.42Z" fill="#020202"/>
<path d="M46.3333 19.6667H19.6667C17.8167 19.6667 16.35 21.15 16.35 23L16.3333 43C16.3333 44.85 17.8167 46.3334 19.6667 46.3334H46.3333C48.1833 46.3334 49.6667 44.85 49.6667 43V23C49.6667 21.15 48.1833 19.6667 46.3333 19.6667ZM46.3333 43H19.6667V33H46.3333V43ZM46.3333 26.3334H19.6667V23H46.3333V26.3334Z" fill="black"/>
</svg>
