<svg width="67" height="80" viewBox="0 0 67 80" fill="none" xmlns="http://www.w3.org/2000/svg">
<circle cx="33.5" cy="32.5" r="32.5" fill="#D60000"/>
<path d="M9.51594 71.07C9.51594 71.65 9.31594 72.1333 8.91594 72.52C8.5226 72.9 7.91927 73.09 7.10594 73.09H5.76594V76H4.85594V69.03H7.10594C7.8926 69.03 8.48927 69.22 8.89594 69.6C9.30927 69.98 9.51594 70.47 9.51594 71.07ZM7.10594 72.34C7.6126 72.34 7.98594 72.23 8.22594 72.01C8.46594 71.79 8.58594 71.4767 8.58594 71.07C8.58594 70.21 8.0926 69.78 7.10594 69.78H5.76594V72.34H7.10594ZM15.647 73.05C15.647 73.2233 15.637 73.4067 15.617 73.6H11.237C11.2703 74.14 11.4536 74.5633 11.787 74.87C12.127 75.17 12.537 75.32 13.017 75.32C13.4103 75.32 13.737 75.23 13.997 75.05C14.2636 74.8633 14.4503 74.6167 14.557 74.31H15.537C15.3903 74.8367 15.097 75.2667 14.657 75.6C14.217 75.9267 13.6703 76.09 13.017 76.09C12.497 76.09 12.0303 75.9733 11.617 75.74C11.2103 75.5067 10.8903 75.1767 10.657 74.75C10.4236 74.3167 10.307 73.8167 10.307 73.25C10.307 72.6833 10.4203 72.1867 10.647 71.76C10.8736 71.3333 11.1903 71.0067 11.597 70.78C12.0103 70.5467 12.4836 70.43 13.017 70.43C13.537 70.43 13.997 70.5433 14.397 70.77C14.797 70.9967 15.1036 71.31 15.317 71.71C15.537 72.1033 15.647 72.55 15.647 73.05ZM14.707 72.86C14.707 72.5133 14.6303 72.2167 14.477 71.97C14.3236 71.7167 14.1136 71.5267 13.847 71.4C13.587 71.2667 13.297 71.2 12.977 71.2C12.517 71.2 12.1236 71.3467 11.797 71.64C11.477 71.9333 11.2936 72.34 11.247 72.86H14.707ZM19.5181 70.42C20.1848 70.42 20.7248 70.6233 21.1381 71.03C21.5515 71.43 21.7581 72.01 21.7581 72.77V76H20.8581V72.9C20.8581 72.3533 20.7215 71.9367 20.4481 71.65C20.1748 71.3567 19.8015 71.21 19.3281 71.21C18.8481 71.21 18.4648 71.36 18.1781 71.66C17.8981 71.96 17.7581 72.3967 17.7581 72.97V76H16.8481V70.52H17.7581V71.3C17.9381 71.02 18.1815 70.8033 18.4881 70.65C18.8015 70.4967 19.1448 70.42 19.5181 70.42ZM25.5046 70.43C25.9779 70.43 26.3913 70.5333 26.7446 70.74C27.1046 70.9467 27.3713 71.2067 27.5446 71.52V70.52H28.4646V76.12C28.4646 76.62 28.3579 77.0633 28.1446 77.45C27.9313 77.8433 27.6246 78.15 27.2246 78.37C26.8313 78.59 26.3713 78.7 25.8446 78.7C25.1246 78.7 24.5246 78.53 24.0446 78.19C23.5646 77.85 23.2813 77.3867 23.1946 76.8H24.0946C24.1946 77.1333 24.4013 77.4 24.7146 77.6C25.0279 77.8067 25.4046 77.91 25.8446 77.91C26.3446 77.91 26.7513 77.7533 27.0646 77.44C27.3846 77.1267 27.5446 76.6867 27.5446 76.12V74.97C27.3646 75.29 27.0979 75.5567 26.7446 75.77C26.3913 75.9833 25.9779 76.09 25.5046 76.09C25.0179 76.09 24.5746 75.97 24.1746 75.73C23.7813 75.49 23.4713 75.1533 23.2446 74.72C23.0179 74.2867 22.9046 73.7933 22.9046 73.24C22.9046 72.68 23.0179 72.19 23.2446 71.77C23.4713 71.3433 23.7813 71.0133 24.1746 70.78C24.5746 70.5467 25.0179 70.43 25.5046 70.43ZM27.5446 73.25C27.5446 72.8367 27.4613 72.4767 27.2946 72.17C27.1279 71.8633 26.9013 71.63 26.6146 71.47C26.3346 71.3033 26.0246 71.22 25.6846 71.22C25.3446 71.22 25.0346 71.3 24.7546 71.46C24.4746 71.62 24.2513 71.8533 24.0846 72.16C23.9179 72.4667 23.8346 72.8267 23.8346 73.24C23.8346 73.66 23.9179 74.0267 24.0846 74.34C24.2513 74.6467 24.4746 74.8833 24.7546 75.05C25.0346 75.21 25.3446 75.29 25.6846 75.29C26.0246 75.29 26.3346 75.21 26.6146 75.05C26.9013 74.8833 27.1279 74.6467 27.2946 74.34C27.4613 74.0267 27.5446 73.6633 27.5446 73.25ZM29.6624 73.24C29.6624 72.68 29.7758 72.19 30.0024 71.77C30.2291 71.3433 30.5391 71.0133 30.9324 70.78C31.3324 70.5467 31.7758 70.43 32.2624 70.43C32.7424 70.43 33.1591 70.5333 33.5124 70.74C33.8658 70.9467 34.1291 71.2067 34.3024 71.52V70.52H35.2224V76H34.3024V74.98C34.1224 75.3 33.8524 75.5667 33.4924 75.78C33.1391 75.9867 32.7258 76.09 32.2524 76.09C31.7658 76.09 31.3258 75.97 30.9324 75.73C30.5391 75.49 30.2291 75.1533 30.0024 74.72C29.7758 74.2867 29.6624 73.7933 29.6624 73.24ZM34.3024 73.25C34.3024 72.8367 34.2191 72.4767 34.0524 72.17C33.8858 71.8633 33.6591 71.63 33.3724 71.47C33.0924 71.3033 32.7824 71.22 32.4424 71.22C32.1024 71.22 31.7924 71.3 31.5124 71.46C31.2324 71.62 31.0091 71.8533 30.8424 72.16C30.6758 72.4667 30.5924 72.8267 30.5924 73.24C30.5924 73.66 30.6758 74.0267 30.8424 74.34C31.0091 74.6467 31.2324 74.8833 31.5124 75.05C31.7924 75.21 32.1024 75.29 32.4424 75.29C32.7824 75.29 33.0924 75.21 33.3724 75.05C33.6591 74.8833 33.8858 74.6467 34.0524 74.34C34.2191 74.0267 34.3024 73.6633 34.3024 73.25ZM37.8702 71.27V74.5C37.8702 74.7667 37.9269 74.9567 38.0402 75.07C38.1536 75.1767 38.3502 75.23 38.6302 75.23H39.3002V76H38.4802C37.9736 76 37.5936 75.8833 37.3402 75.65C37.0869 75.4167 36.9602 75.0333 36.9602 74.5V71.27H36.2502V70.52H36.9602V69.14H37.8702V70.52H39.3002V71.27H37.8702ZM45.2628 70.52V76H44.3528V75.19C44.1795 75.47 43.9361 75.69 43.6228 75.85C43.3161 76.0033 42.9761 76.08 42.6028 76.08C42.1761 76.08 41.7928 75.9933 41.4528 75.82C41.1128 75.64 40.8428 75.3733 40.6428 75.02C40.4495 74.6667 40.3528 74.2367 40.3528 73.73V70.52H41.2528V73.61C41.2528 74.15 41.3895 74.5667 41.6628 74.86C41.9361 75.1467 42.3095 75.29 42.7828 75.29C43.2695 75.29 43.6528 75.14 43.9328 74.84C44.2128 74.54 44.3528 74.1033 44.3528 73.53V70.52H45.2628ZM47.7093 71.41C47.8693 71.0967 48.096 70.8533 48.3893 70.68C48.6893 70.5067 49.0526 70.42 49.4793 70.42V71.36H49.2393C48.2193 71.36 47.7093 71.9133 47.7093 73.02V76H46.7993V70.52H47.7093V71.41ZM50.1898 73.24C50.1898 72.68 50.3031 72.19 50.5298 71.77C50.7564 71.3433 51.0664 71.0133 51.4598 70.78C51.8598 70.5467 52.3031 70.43 52.7898 70.43C53.2698 70.43 53.6864 70.5333 54.0398 70.74C54.3931 70.9467 54.6564 71.2067 54.8298 71.52V70.52H55.7498V76H54.8298V74.98C54.6498 75.3 54.3798 75.5667 54.0198 75.78C53.6664 75.9867 53.2531 76.09 52.7798 76.09C52.2931 76.09 51.8531 75.97 51.4598 75.73C51.0664 75.49 50.7564 75.1533 50.5298 74.72C50.3031 74.2867 50.1898 73.7933 50.1898 73.24ZM54.8298 73.25C54.8298 72.8367 54.7464 72.4767 54.5798 72.17C54.4131 71.8633 54.1864 71.63 53.8998 71.47C53.6198 71.3033 53.3098 71.22 52.9698 71.22C52.6298 71.22 52.3198 71.3 52.0398 71.46C51.7598 71.62 51.5364 71.8533 51.3698 72.16C51.2031 72.4667 51.1198 72.8267 51.1198 73.24C51.1198 73.66 51.2031 74.0267 51.3698 74.34C51.5364 74.6467 51.7598 74.8833 52.0398 75.05C52.3198 75.21 52.6298 75.29 52.9698 75.29C53.3098 75.29 53.6198 75.21 53.8998 75.05C54.1864 74.8833 54.4131 74.6467 54.5798 74.34C54.7464 74.0267 54.8298 73.6633 54.8298 73.25ZM59.9576 70.42C60.6242 70.42 61.1642 70.6233 61.5776 71.03C61.9909 71.43 62.1976 72.01 62.1976 72.77V76H61.2976V72.9C61.2976 72.3533 61.1609 71.9367 60.8876 71.65C60.6142 71.3567 60.2409 71.21 59.7676 71.21C59.2876 71.21 58.9042 71.36 58.6176 71.66C58.3376 71.96 58.1976 72.3967 58.1976 72.97V76H57.2876V70.52H58.1976V71.3C58.3776 71.02 58.6209 70.8033 58.9276 70.65C59.2409 70.4967 59.5842 70.42 59.9576 70.42Z" fill="#020202"/>
<path d="M45.3833 34.6334C45.45 34.1 45.5 33.5667 45.5 33C45.5 32.4334 45.45 31.9 45.3833 31.3667L48.9 28.6167C49.2167 28.3667 49.3 27.9167 49.1 27.55L45.7667 21.7834C45.6167 21.5167 45.3333 21.3667 45.0333 21.3667C44.9333 21.3667 44.8333 21.3834 44.75 21.4167L40.6 23.0834C39.7333 22.4167 38.8 21.8667 37.7833 21.45L37.15 17.0334C37.1 16.6334 36.75 16.3334 36.3333 16.3334H29.6667C29.25 16.3334 28.9 16.6334 28.85 17.0334L28.2167 21.45C27.2 21.8667 26.2667 22.4334 25.4 23.0834L21.25 21.4167C21.15 21.3834 21.05 21.3667 20.95 21.3667C20.6667 21.3667 20.3833 21.5167 20.2333 21.7834L16.9 27.55C16.6833 27.9167 16.7833 28.3667 17.1 28.6167L20.6167 31.3667C20.55 31.9 20.5 32.45 20.5 33C20.5 33.55 20.55 34.1 20.6167 34.6334L17.1 37.3834C16.7833 37.6334 16.7 38.0834 16.9 38.45L20.2333 44.2167C20.3833 44.4834 20.6667 44.6334 20.9667 44.6334C21.0667 44.6334 21.1667 44.6167 21.25 44.5834L25.4 42.9167C26.2667 43.5834 27.2 44.1334 28.2167 44.55L28.85 48.9667C28.9 49.3667 29.25 49.6667 29.6667 49.6667H36.3333C36.75 49.6667 37.1 49.3667 37.15 48.9667L37.7833 44.55C38.8 44.1334 39.7333 43.5667 40.6 42.9167L44.75 44.5834C44.85 44.6167 44.95 44.6334 45.05 44.6334C45.3333 44.6334 45.6167 44.4834 45.7667 44.2167L49.1 38.45C49.3 38.0834 49.2167 37.6334 48.9 37.3834L45.3833 34.6334ZM42.0833 31.7834C42.15 32.3 42.1667 32.65 42.1667 33C42.1667 33.35 42.1333 33.7167 42.0833 34.2167L41.85 36.1L43.3333 37.2667L45.1333 38.6667L43.9667 40.6834L41.85 39.8334L40.1167 39.1334L38.6167 40.2667C37.9 40.8 37.2167 41.2 36.5333 41.4834L34.7667 42.2L34.5 44.0834L34.1667 46.3334H31.8333L31.5167 44.0834L31.25 42.2L29.4833 41.4834C28.7667 41.1834 28.1 40.8 27.4333 40.3L25.9167 39.1334L24.15 39.85L22.0333 40.7L20.8667 38.6834L22.6667 37.2834L24.15 36.1167L23.9167 34.2334C23.8667 33.7167 23.8333 33.3334 23.8333 33C23.8333 32.6667 23.8667 32.2834 23.9167 31.7834L24.15 29.9L22.6667 28.7334L20.8667 27.3334L22.0333 25.3167L24.15 26.1667L25.8833 26.8667L27.3833 25.7334C28.1 25.2 28.7833 24.8 29.4667 24.5167L31.2333 23.8L31.5 21.9167L31.8333 19.6667H34.15L34.4667 21.9167L34.7333 23.8L36.5 24.5167C37.2167 24.8167 37.8833 25.2 38.55 25.7L40.0667 26.8667L41.8333 26.15L43.95 25.3L45.1167 27.3167L43.3333 28.7334L41.85 29.9L42.0833 31.7834ZM33 26.3334C29.3167 26.3334 26.3333 29.3167 26.3333 33C26.3333 36.6834 29.3167 39.6667 33 39.6667C36.6833 39.6667 39.6667 36.6834 39.6667 33C39.6667 29.3167 36.6833 26.3334 33 26.3334ZM33 36.3334C31.1667 36.3334 29.6667 34.8334 29.6667 33C29.6667 31.1667 31.1667 29.6667 33 29.6667C34.8333 29.6667 36.3333 31.1667 36.3333 33C36.3333 34.8334 34.8333 36.3334 33 36.3334Z" fill="black"/>
</svg>
