<svg width="67" height="80" viewBox="0 0 67 80" fill="none" xmlns="http://www.w3.org/2000/svg">
<circle cx="33.5" cy="32.5" r="32.5" fill="#D60000"/>
<path d="M21.1918 69.03V69.77H19.2918V76H18.3818V69.77H16.4718V69.03H21.1918ZM24.702 76.09C24.1887 76.09 23.722 75.9733 23.302 75.74C22.8887 75.5067 22.562 75.1767 22.322 74.75C22.0887 74.3167 21.972 73.8167 21.972 73.25C21.972 72.69 22.092 72.1967 22.332 71.77C22.5787 71.3367 22.912 71.0067 23.332 70.78C23.752 70.5467 24.222 70.43 24.742 70.43C25.262 70.43 25.732 70.5467 26.152 70.78C26.572 71.0067 26.902 71.3333 27.142 71.76C27.3887 72.1867 27.512 72.6833 27.512 73.25C27.512 73.8167 27.3853 74.3167 27.132 74.75C26.8853 75.1767 26.5487 75.5067 26.122 75.74C25.6953 75.9733 25.222 76.09 24.702 76.09ZM24.702 75.29C25.0287 75.29 25.3353 75.2133 25.622 75.06C25.9087 74.9067 26.1387 74.6767 26.312 74.37C26.492 74.0633 26.582 73.69 26.582 73.25C26.582 72.81 26.4953 72.4367 26.322 72.13C26.1487 71.8233 25.922 71.5967 25.642 71.45C25.362 71.2967 25.0587 71.22 24.732 71.22C24.3987 71.22 24.092 71.2967 23.812 71.45C23.5387 71.5967 23.3187 71.8233 23.152 72.13C22.9853 72.4367 22.902 72.81 22.902 73.25C22.902 73.6967 22.982 74.0733 23.142 74.38C23.3087 74.6867 23.5287 74.9167 23.802 75.07C24.0753 75.2167 24.3753 75.29 24.702 75.29ZM29.6185 71.53C29.7985 71.2167 30.0651 70.9567 30.4185 70.75C30.7785 70.5367 31.1951 70.43 31.6685 70.43C32.1551 70.43 32.5951 70.5467 32.9885 70.78C33.3885 71.0133 33.7018 71.3433 33.9285 71.77C34.1551 72.19 34.2685 72.68 34.2685 73.24C34.2685 73.7933 34.1551 74.2867 33.9285 74.72C33.7018 75.1533 33.3885 75.49 32.9885 75.73C32.5951 75.97 32.1551 76.09 31.6685 76.09C31.2018 76.09 30.7885 75.9867 30.4285 75.78C30.0751 75.5667 29.8051 75.3033 29.6185 74.99V78.6H28.7085V70.52H29.6185V71.53ZM33.3385 73.24C33.3385 72.8267 33.2551 72.4667 33.0885 72.16C32.9218 71.8533 32.6951 71.62 32.4085 71.46C32.1285 71.3 31.8185 71.22 31.4785 71.22C31.1451 71.22 30.8351 71.3033 30.5485 71.47C30.2685 71.63 30.0418 71.8667 29.8685 72.18C29.7018 72.4867 29.6185 72.8433 29.6185 73.25C29.6185 73.6633 29.7018 74.0267 29.8685 74.34C30.0418 74.6467 30.2685 74.8833 30.5485 75.05C30.8351 75.21 31.1451 75.29 31.4785 75.29C31.8185 75.29 32.1285 75.21 32.4085 75.05C32.6951 74.8833 32.9218 74.6467 33.0885 74.34C33.2551 74.0267 33.3385 73.66 33.3385 73.24ZM39.0223 69.03V73.44C39.0223 74.06 39.1723 74.52 39.4723 74.82C39.779 75.12 40.2023 75.27 40.7423 75.27C41.2756 75.27 41.6923 75.12 41.9923 74.82C42.299 74.52 42.4523 74.06 42.4523 73.44V69.03H43.3623V73.43C43.3623 74.01 43.2456 74.5 43.0123 74.9C42.779 75.2933 42.4623 75.5867 42.0623 75.78C41.669 75.9733 41.2256 76.07 40.7323 76.07C40.239 76.07 39.7923 75.9733 39.3923 75.78C38.999 75.5867 38.6856 75.2933 38.4523 74.9C38.2256 74.5 38.1123 74.01 38.1123 73.43V69.03H39.0223ZM45.7904 71.53C45.9704 71.2167 46.237 70.9567 46.5904 70.75C46.9504 70.5367 47.367 70.43 47.8404 70.43C48.327 70.43 48.767 70.5467 49.1604 70.78C49.5604 71.0133 49.8737 71.3433 50.1004 71.77C50.327 72.19 50.4404 72.68 50.4404 73.24C50.4404 73.7933 50.327 74.2867 50.1004 74.72C49.8737 75.1533 49.5604 75.49 49.1604 75.73C48.767 75.97 48.327 76.09 47.8404 76.09C47.3737 76.09 46.9604 75.9867 46.6004 75.78C46.247 75.5667 45.977 75.3033 45.7904 74.99V78.6H44.8804V70.52H45.7904V71.53ZM49.5104 73.24C49.5104 72.8267 49.427 72.4667 49.2604 72.16C49.0937 71.8533 48.867 71.62 48.5804 71.46C48.3004 71.3 47.9904 71.22 47.6504 71.22C47.317 71.22 47.007 71.3033 46.7204 71.47C46.4404 71.63 46.2137 71.8667 46.0404 72.18C45.8737 72.4867 45.7904 72.8433 45.7904 73.25C45.7904 73.6633 45.8737 74.0267 46.0404 74.34C46.2137 74.6467 46.4404 74.8833 46.7204 75.05C47.007 75.21 47.317 75.29 47.6504 75.29C47.9904 75.29 48.3004 75.21 48.5804 75.05C48.867 74.8833 49.0937 74.6467 49.2604 74.34C49.427 74.0267 49.5104 73.66 49.5104 73.24Z" fill="#020202"/>
<path d="M33 16.3333C23.8 16.3333 16.3333 23.8 16.3333 33C16.3333 42.2 23.8 49.6666 33 49.6666C42.2 49.6666 49.6667 42.2 49.6667 33C49.6667 23.8 42.2 16.3333 33 16.3333ZM33 46.3333C25.65 46.3333 19.6667 40.35 19.6667 33C19.6667 25.65 25.65 19.6666 33 19.6666C40.35 19.6666 46.3333 25.65 46.3333 33C46.3333 40.35 40.35 46.3333 33 46.3333ZM34.4833 31.5C31.5167 30.5166 30.0833 29.9 30.0833 28.3333C30.0833 26.6333 31.9333 26.0166 33.1 26.0166C35.2833 26.0166 36.0833 27.6666 36.2667 28.25L38.9 27.1333C38.65 26.4 37.5333 23.95 34.4667 23.4166V21.3333H31.55V23.4333C27.2167 24.3666 27.1833 28.1833 27.1833 28.3666C27.1833 32.15 30.9333 33.2166 32.7667 33.8833C35.4 34.8166 36.5667 35.6666 36.5667 37.2666C36.5667 39.15 34.8167 39.95 33.2667 39.95C30.2333 39.95 29.3667 36.8333 29.2667 36.4666L26.5 37.5833C27.55 41.2333 30.3 42.2166 31.5333 42.5166V44.6666H34.45V42.6C35.3167 42.45 39.4833 41.6166 39.4833 37.2333C39.5 34.9166 38.4833 32.8833 34.4833 31.5Z" fill="black"/>
</svg>
