<svg width="67" height="80" viewBox="0 0 67 80" fill="none" xmlns="http://www.w3.org/2000/svg">
<circle cx="33.5" cy="32.5" r="32.5" fill="#D60000"/>
<path d="M18.1889 69.03V69.77H16.2889V76H15.3789V69.77H13.4689V69.03H18.1889ZM20.2191 71.41C20.3791 71.0967 20.6057 70.8533 20.8991 70.68C21.1991 70.5067 21.5624 70.42 21.9891 70.42V71.36H21.7491C20.7291 71.36 20.2191 71.9133 20.2191 73.02V76H19.3091V70.52H20.2191V71.41ZM22.6995 73.24C22.6995 72.68 22.8129 72.19 23.0395 71.77C23.2662 71.3433 23.5762 71.0133 23.9695 70.78C24.3695 70.5467 24.8129 70.43 25.2995 70.43C25.7795 70.43 26.1962 70.5333 26.5495 70.74C26.9029 70.9467 27.1662 71.2067 27.3395 71.52V70.52H28.2595V76H27.3395V74.98C27.1595 75.3 26.8895 75.5667 26.5295 75.78C26.1762 75.9867 25.7629 76.09 25.2895 76.09C24.8029 76.09 24.3629 75.97 23.9695 75.73C23.5762 75.49 23.2662 75.1533 23.0395 74.72C22.8129 74.2867 22.6995 73.7933 22.6995 73.24ZM27.3395 73.25C27.3395 72.8367 27.2562 72.4767 27.0895 72.17C26.9229 71.8633 26.6962 71.63 26.4095 71.47C26.1295 71.3033 25.8195 71.22 25.4795 71.22C25.1395 71.22 24.8295 71.3 24.5495 71.46C24.2695 71.62 24.0462 71.8533 23.8795 72.16C23.7129 72.4667 23.6295 72.8267 23.6295 73.24C23.6295 73.66 23.7129 74.0267 23.8795 74.34C24.0462 74.6467 24.2695 74.8833 24.5495 75.05C24.8295 75.21 25.1395 75.29 25.4795 75.29C25.8195 75.29 26.1295 75.21 26.4095 75.05C26.6962 74.8833 26.9229 74.6467 27.0895 74.34C27.2562 74.0267 27.3395 73.6633 27.3395 73.25ZM32.4673 70.42C33.134 70.42 33.674 70.6233 34.0873 71.03C34.5007 71.43 34.7073 72.01 34.7073 72.77V76H33.8073V72.9C33.8073 72.3533 33.6707 71.9367 33.3973 71.65C33.124 71.3567 32.7507 71.21 32.2773 71.21C31.7973 71.21 31.414 71.36 31.1273 71.66C30.8473 71.96 30.7073 72.3967 30.7073 72.97V76H29.7973V70.52H30.7073V71.3C30.8873 71.02 31.1307 70.8033 31.4373 70.65C31.7507 70.4967 32.094 70.42 32.4673 70.42ZM38.1338 76.09C37.7138 76.09 37.3372 76.02 37.0038 75.88C36.6705 75.7333 36.4072 75.5333 36.2138 75.28C36.0205 75.02 35.9138 74.7233 35.8938 74.39H36.8338C36.8605 74.6633 36.9872 74.8867 37.2138 75.06C37.4472 75.2333 37.7505 75.32 38.1238 75.32C38.4705 75.32 38.7438 75.2433 38.9438 75.09C39.1438 74.9367 39.2438 74.7433 39.2438 74.51C39.2438 74.27 39.1372 74.0933 38.9238 73.98C38.7105 73.86 38.3805 73.7433 37.9338 73.63C37.5272 73.5233 37.1938 73.4167 36.9338 73.31C36.6805 73.1967 36.4605 73.0333 36.2738 72.82C36.0938 72.6 36.0038 72.3133 36.0038 71.96C36.0038 71.68 36.0872 71.4233 36.2538 71.19C36.4205 70.9567 36.6572 70.7733 36.9638 70.64C37.2705 70.5 37.6205 70.43 38.0138 70.43C38.6205 70.43 39.1105 70.5833 39.4838 70.89C39.8572 71.1967 40.0572 71.6167 40.0838 72.15H39.1738C39.1538 71.8633 39.0372 71.6333 38.8238 71.46C38.6172 71.2867 38.3372 71.2 37.9838 71.2C37.6572 71.2 37.3972 71.27 37.2038 71.41C37.0105 71.55 36.9138 71.7333 36.9138 71.96C36.9138 72.14 36.9705 72.29 37.0838 72.41C37.2038 72.5233 37.3505 72.6167 37.5238 72.69C37.7038 72.7567 37.9505 72.8333 38.2638 72.92C38.6572 73.0267 38.9772 73.1333 39.2238 73.24C39.4705 73.34 39.6805 73.4933 39.8538 73.7C40.0338 73.9067 40.1272 74.1767 40.1338 74.51C40.1338 74.81 40.0505 75.08 39.8838 75.32C39.7172 75.56 39.4805 75.75 39.1738 75.89C38.8738 76.0233 38.5272 76.09 38.1338 76.09ZM43.6484 71.27H42.4984V76H41.5884V71.27H40.8784V70.52H41.5884V70.13C41.5884 69.5167 41.7451 69.07 42.0584 68.79C42.3784 68.5033 42.8884 68.36 43.5884 68.36V69.12C43.1884 69.12 42.9051 69.2 42.7384 69.36C42.5784 69.5133 42.4984 69.77 42.4984 70.13V70.52H43.6484V71.27ZM49.7095 73.05C49.7095 73.2233 49.6995 73.4067 49.6795 73.6H45.2995C45.3328 74.14 45.5161 74.5633 45.8495 74.87C46.1895 75.17 46.5995 75.32 47.0795 75.32C47.4728 75.32 47.7995 75.23 48.0595 75.05C48.3261 74.8633 48.5128 74.6167 48.6195 74.31H49.5995C49.4528 74.8367 49.1595 75.2667 48.7195 75.6C48.2795 75.9267 47.7328 76.09 47.0795 76.09C46.5595 76.09 46.0928 75.9733 45.6795 75.74C45.2728 75.5067 44.9528 75.1767 44.7195 74.75C44.4861 74.3167 44.3695 73.8167 44.3695 73.25C44.3695 72.6833 44.4828 72.1867 44.7095 71.76C44.9361 71.3333 45.2528 71.0067 45.6595 70.78C46.0728 70.5467 46.5461 70.43 47.0795 70.43C47.5995 70.43 48.0595 70.5433 48.4595 70.77C48.8595 70.9967 49.1661 71.31 49.3795 71.71C49.5995 72.1033 49.7095 72.55 49.7095 73.05ZM48.7695 72.86C48.7695 72.5133 48.6928 72.2167 48.5395 71.97C48.3861 71.7167 48.1761 71.5267 47.9095 71.4C47.6495 71.2667 47.3595 71.2 47.0395 71.2C46.5795 71.2 46.1861 71.3467 45.8595 71.64C45.5395 71.9333 45.3561 72.34 45.3095 72.86H48.7695ZM51.8206 71.41C51.9806 71.0967 52.2073 70.8533 52.5006 70.68C52.8006 70.5067 53.164 70.42 53.5906 70.42V71.36H53.3506C52.3306 71.36 51.8206 71.9133 51.8206 73.02V76H50.9106V70.52H51.8206V71.41Z" fill="#020202"/>
<path d="M25.35 35.35L23 33L16.3333 39.6667L23 46.3333L25.35 43.9833L22.7167 41.3333H48V38H22.7167L25.35 35.35Z" fill="black"/>
<path d="M40.65 30.65L43 33L49.6667 26.3334L43 19.6667L40.65 22.0167L43.2833 24.6667H18V28H43.2833L40.65 30.65Z" fill="black"/>
</svg>
