<svg width="35" height="35" viewBox="0 0 35 35" fill="none" xmlns="http://www.w3.org/2000/svg">
<path d="M21.8088 17.5L33.8693 5.43946C34.4417 4.86808 34.7637 4.09272 34.7644 3.28395C34.7651 2.47518 34.4445 1.69925 33.8731 1.12686C33.3018 0.55447 32.5264 0.232503 31.7176 0.231789C30.9089 0.231075 30.1329 0.551672 29.5605 1.12305L17.5 13.1836L5.43945 1.12305C4.86706 0.550662 4.09073 0.229095 3.28125 0.229095C2.47177 0.229095 1.69544 0.550662 1.12305 1.12305C0.550654 1.69544 0.229088 2.47177 0.229088 3.28126C0.229088 4.09074 0.550654 4.86707 1.12305 5.43946L13.1836 17.5L1.12305 29.5606C0.550654 30.1329 0.229088 30.9093 0.229088 31.7188C0.229088 32.5282 0.550654 33.3046 1.12305 33.877C1.69544 34.4493 2.47177 34.7709 3.28125 34.7709C4.09073 34.7709 4.86706 34.4493 5.43945 33.877L17.5 21.8164L29.5605 33.877C30.1329 34.4493 30.9093 34.7709 31.7187 34.7709C32.5282 34.7709 33.3046 34.4493 33.8769 33.877C34.4493 33.3046 34.7709 32.5282 34.7709 31.7188C34.7709 30.9093 34.4493 30.1329 33.8769 29.5606L21.8088 17.5Z" fill="black"/>
</svg>
